<?xml version="1.0" encoding="UTF-8"?>
<svg width="140px" height="25px" viewBox="0 0 140 25" version="1.1" xmlns="http://www.w3.org/2000/svg" xmlns:xlink="http://www.w3.org/1999/xlink">
    <g id="Symbols" stroke="none" stroke-width="1" fill="none" fill-rule="evenodd">
        <g id="Header_2" transform="translate(-158.000000, -63.000000)">
            <g id="Logo">
                <g transform="translate(158.000000, 63.000000)">
                    <path d="M39.556,24 L39.556,14.106 L48.77,14.106 L48.77,24 L54.584,24 L54.584,0.132 L48.77,0.132 L48.77,9.686 L39.556,9.686 L39.556,0.132 L33.742,0.132 L33.742,24 L39.556,24 Z M68.286,24.238 C71.0966667,24.238 73.4426667,23.3426667 75.324,21.552 C77.2053333,19.7613333 78.146,17.404 78.146,14.48 C78.146,11.556 77.1996667,9.21566667 75.307,7.459 C73.4143333,5.70233333 71.0626667,4.824 68.252,4.824 C65.4413333,4.824 63.084,5.70233333 61.18,7.459 C59.276,9.21566667 58.324,11.556 58.324,14.48 C58.324,17.404 59.276,19.7613333 61.18,21.552 C63.1066667,23.3426667 65.4753333,24.238 68.286,24.238 Z M68.286,19.274 C67.198,19.274 66.2516667,18.866 65.447,18.05 C64.6423333,17.234 64.24,16.0553333 64.24,14.514 C64.24,12.9726667 64.631,11.7996667 65.413,10.995 C66.195,10.1903333 67.13,9.788 68.218,9.788 C69.306,9.788 70.2466667,10.1903333 71.04,10.995 C71.8333333,11.7996667 72.23,12.9726667 72.23,14.514 C72.23,16.0553333 71.8446667,17.234 71.074,18.05 C70.3033333,18.866 69.374,19.274 68.286,19.274 Z M88.856,24.238 C91.168,24.238 93.0833333,23.677 94.602,22.555 C96.1206667,21.433 96.88,19.988 96.88,18.22 C96.88,17.1546667 96.6136667,16.2536667 96.081,15.517 C95.5483333,14.7803333 94.8853333,14.2533333 94.092,13.936 C92.5506667,13.2786667 90.8393333,12.7913333 88.958,12.474 C87.0993333,12.1566667 86.17,11.5786667 86.17,10.74 C86.17,9.81066667 86.9293333,9.346 88.448,9.346 C89.2186667,9.346 89.7966667,9.465 90.182,9.703 C90.5673333,9.941 90.794,10.3886667 90.862,11.046 L90.862,11.046 L96.812,11.046 C96.7213333,9.11933333 95.928,7.60066667 94.432,6.49 C92.936,5.37933333 90.9696667,4.824 88.533,4.824 C86.0963333,4.824 84.164,5.39066667 82.736,6.524 C81.308,7.65733333 80.594,9.06266667 80.594,10.74 C80.594,11.964 80.9623333,12.9556667 81.699,13.715 C82.4356667,14.4743333 83.331,15.007 84.385,15.313 C85.439,15.619 86.4873333,15.874 87.53,16.078 C88.5726667,16.282 89.4623333,16.5313333 90.199,16.826 C90.9356667,17.1206667 91.304,17.5173333 91.304,18.016 C91.304,18.5146667 91.083,18.9226667 90.641,19.24 C90.199,19.5573333 89.638,19.716 88.958,19.716 C87.4846667,19.716 86.6686667,19.138 86.51,17.982 L86.51,17.982 L80.56,17.982 C80.696,20.0446667 81.5346667,21.603 83.076,22.657 C84.6173333,23.711 86.544,24.238 88.856,24.238 Z M108.814,24.238 C111.080667,24.238 113.03,23.6373333 114.662,22.436 C116.294,21.2346667 117.370667,19.614 117.892,17.574 L117.892,17.574 L111.602,17.574 C111.284667,18.2086667 110.922,18.6506667 110.514,18.9 C110.106,19.1493333 109.539333,19.274 108.814,19.274 C107.658,19.274 106.779667,18.8376667 106.179,17.965 C105.578333,17.0923333 105.278,15.942 105.278,14.514 C105.278,13.086 105.578333,11.9356667 106.179,11.063 C106.779667,10.1903333 107.697667,9.754 108.933,9.754 C110.168333,9.754 111.058,10.3206667 111.602,11.454 L111.602,11.454 L117.892,11.454 C117.370667,9.32333333 116.305333,7.68566667 114.696,6.541 C113.086667,5.39633333 111.126,4.824 108.814,4.824 C106.026,4.824 103.753667,5.70233333 101.997,7.459 C100.240333,9.21566667 99.362,11.5673333 99.362,14.514 C99.362,17.4606667 100.234667,19.818 101.98,21.586 C103.748,23.354 106.026,24.238 108.814,24.238 Z M129.758,24.238 C132.568667,24.238 134.914667,23.3426667 136.796,21.552 C138.677333,19.7613333 139.618,17.404 139.618,14.48 C139.618,11.556 138.671667,9.21566667 136.779,7.459 C134.886333,5.70233333 132.534667,4.824 129.724,4.824 C126.913333,4.824 124.556,5.70233333 122.652,7.459 C120.748,9.21566667 119.796,11.556 119.796,14.48 C119.796,17.404 120.748,19.7613333 122.652,21.552 C124.578667,23.3426667 126.947333,24.238 129.758,24.238 Z M129.758,19.274 C128.67,19.274 127.723667,18.866 126.919,18.05 C126.114333,17.234 125.712,16.0553333 125.712,14.514 C125.712,12.9726667 126.103,11.7996667 126.885,10.995 C127.667,10.1903333 128.602,9.788 129.69,9.788 C130.778,9.788 131.718667,10.1903333 132.512,10.995 C133.305333,11.7996667 133.702,12.9726667 133.702,14.514 C133.702,16.0553333 133.316667,17.234 132.546,18.05 C131.775333,18.866 130.846,19.274 129.758,19.274 Z" id="Hosco" fill="#060606" fill-rule="nonzero"></path>
                    <path d="M16,0 L16,8 L24,8 L24,16 L16,16 L16,24 L8,24 L8,20.421 L14.2463565,11.9977443 L8,3.638 L8,0 L16,0 Z M8,6.979 L11.753,12.002 L8,17.063 L8,15.999 L0,16 L0,8 L8,7.999 L8,6.979 Z" id="Combined-Shape" fill="#446CCD"></path>
                </g>
            </g>
        </g>
    </g>
</svg>